<?xml version="1.0" encoding="utf-8"?>
<!-- Generator: Adobe Illustrator 22.1.0, SVG Export Plug-In . SVG Version: 6.00 Build 0)  -->
<svg version="1.1" id="Ebene_1" xmlns="http://www.w3.org/2000/svg" xmlns:xlink="http://www.w3.org/1999/xlink" x="0px" y="0px"
	 viewBox="0 0 4968 573" height="573px" width="4968px" style="enable-background:new 0 0 4968 573;" xml:space="preserve">
<style type="text/css">
	.st0{fill:#FFFFFF;}
</style>
<g>
	<g>
		<path class="st0" d="M905.9,254.6c-5-6.5-11.8-11.7-20.4-15.6c-8.6-3.9-17.4-5.9-26.4-5.9c-9.3,0-17.8,1.9-25.3,5.7
			c-7.5,3.8-14,8.8-19.4,15.1c-5.4,6.3-9.6,13.5-12.6,21.8c-3.1,8.3-4.6,17-4.6,26.4c0,9.3,1.4,18.1,4.3,26.4
			c2.9,8.3,7.1,15.5,12.6,21.8c5.6,6.3,12.2,11.2,19.9,14.8c7.7,3.6,16.4,5.4,26.1,5.4c9,0,17.8-1.7,26.6-5.1
			c8.8-3.4,15.9-8.3,21.3-14.8l49,59.7c-11.1,10.8-25.5,19.2-43,25.3c-17.6,6.1-36.2,9.1-56,9.1c-21.2,0-40.9-3.2-59.3-9.7
			c-18.3-6.5-34.3-15.9-47.8-28.2c-13.5-12.4-24.2-27.3-31.9-44.9c-7.8-17.6-11.6-37.5-11.6-59.7c0-21.9,3.9-41.6,11.6-59.2
			c7.8-17.6,18.4-32.6,31.9-44.9c13.5-12.4,29.5-21.9,47.8-28.5c18.3-6.6,37.9-10,58.7-10c9.7,0,19.3,0.9,28.8,2.7
			c9.5,1.8,18.6,4.2,27.4,7.3c8.8,3.1,16.9,6.8,24.2,11.3c7.3,4.5,13.7,9.4,19.1,14.8L905.9,254.6z"/>
		<path class="st0" d="M987.7,204.6c15.8-15.1,34.2-26.4,55.1-33.9c21-7.5,42.4-11.3,64.3-11.3c22.6,0,41.7,2.8,57.3,8.3
			c15.6,5.6,28.2,14.2,37.9,25.8c9.7,11.7,16.8,26.4,21.3,44.1c4.5,17.8,6.7,38.8,6.7,63.2v135h-80.7v-28.5h-1.6
			c-6.8,11.1-17.1,19.7-30.9,25.8c-13.8,6.1-28.8,9.1-44.9,9.1c-10.8,0-21.9-1.4-33.4-4.3c-11.5-2.9-22-7.5-31.5-14
			c-9.5-6.5-17.3-15.1-23.4-25.8c-6.1-10.8-9.1-24-9.1-39.8c0-19.4,5.3-35,15.9-46.8c10.6-11.8,24.2-21,40.9-27.4
			c16.7-6.5,35.2-10.8,55.7-12.9c20.4-2.2,40.4-3.2,59.7-3.2v-4.3c0-13.3-4.7-23-14-29.3c-9.3-6.3-20.8-9.4-34.4-9.4
			c-12.6,0-24.7,2.7-36.3,8.1c-11.7,5.4-21.6,11.8-29.9,19.4L987.7,204.6z M1149.7,319.1h-11.3c-9.7,0-19.5,0.5-29.3,1.3
			c-9.9,0.9-18.7,2.6-26.4,5.1c-7.7,2.5-14.1,6.2-19.1,11c-5,4.8-7.5,11.2-7.5,19.1c0,5,1.2,9.3,3.5,12.9c2.3,3.6,5.3,6.5,8.9,8.6
			c3.6,2.2,7.7,3.7,12.4,4.6c4.7,0.9,9.1,1.3,13.5,1.3c17.9,0,31.7-4.9,41.2-14.8c9.5-9.9,14.3-23.2,14.3-40.1V319.1z"/>
		<path class="st0" d="M1638.2,435.9V289.6c0-7.5-0.5-14.8-1.6-21.8c-1.1-7-3.1-13-5.9-18c-2.9-5-6.7-9.1-11.6-12.1
			c-4.8-3-11.2-4.6-19.1-4.6c-7.5,0-14.1,1.6-19.6,4.8c-5.6,3.2-10.2,7.5-14,12.9c-3.8,5.4-6.5,11.6-8.3,18.6
			c-1.8,7-2.7,14.3-2.7,21.8v144.7h-88.2V283.1c0-15.4-3.1-27.6-9.1-36.6c-6.1-9-15.8-13.5-29.1-13.5c-14,0-24.8,5.6-32.6,16.7
			c-7.7,11.1-11.6,24.7-11.6,40.9v145.3H1296V168h85.5v37.1h1.1c3.2-5.7,7.3-11.3,12.1-16.7c4.8-5.4,10.7-10.1,17.5-14.3
			c6.8-4.1,14.4-7.4,22.9-10c8.4-2.5,17.7-3.8,27.7-3.8c19.4,0,35.8,4,49.2,11.8c13.5,7.9,23.9,19.2,31.5,33.9
			c9-14,20.4-25.1,34.4-33.4c14-8.2,31-12.4,51.1-12.4c18.3,0,33.6,3.3,46,10c12.4,6.6,22.3,15.3,29.9,25.8
			c7.5,10.6,13,22.4,16.4,35.5c3.4,13.1,5.1,25.9,5.1,38.5v165.7H1638.2z"/>
		<path class="st0" d="M2091.2,300.9c0,18.7-2.9,36.6-8.6,53.8c-5.7,17.2-14.1,32.4-25,45.5c-10.9,13.1-24.3,23.6-40.1,31.5
			c-15.8,7.9-33.7,11.8-53.8,11.8c-16.5,0-32.1-3.3-46.8-10c-14.7-6.6-26.2-15.7-34.4-27.2h-1.1V565h-88.2V168h83.9v32.8h1.6
			c8.2-10.8,19.6-20.2,34.2-28.2c14.5-8.1,31.7-12.1,51.4-12.1c19.4,0,36.9,3.8,52.7,11.3c15.8,7.5,29.1,17.8,40.1,30.7
			c10.9,12.9,19.4,27.9,25.3,44.9C2088.2,264.4,2091.2,282.2,2091.2,300.9z M2005.6,300.9c0-8.6-1.3-17-4-25.3
			c-2.7-8.2-6.6-15.5-11.8-21.8c-5.2-6.3-11.8-11.4-19.6-15.3c-7.9-3.9-17-5.9-27.4-5.9c-10,0-19,2-26.9,5.9
			c-7.9,4-14.6,9.1-20.2,15.6c-5.6,6.5-9.9,13.8-12.9,22.1c-3.1,8.3-4.6,16.7-4.6,25.3s1.5,17,4.6,25.3c3,8.3,7.3,15.6,12.9,22.1
			c5.6,6.5,12.3,11.7,20.2,15.6c7.9,4,16.9,5.9,26.9,5.9c10.4,0,19.5-2,27.4-5.9c7.9-3.9,14.4-9.1,19.6-15.6
			c5.2-6.5,9.1-13.9,11.8-22.3C2004.3,318,2005.6,309.5,2005.6,300.9z"/>
		<path class="st0" d="M2242.4,82.4c0,6.8-1.3,13.2-4,19.1c-2.7,5.9-6.3,11-10.8,15.3c-4.5,4.3-9.9,7.7-16.1,10.2
			c-6.3,2.5-12.8,3.8-19.6,3.8c-14.3,0-26.4-4.7-36-14.3c-9.7-9.5-14.5-20.9-14.5-34.2c0-6.5,1.3-12.6,3.8-18.6
			c2.5-5.9,6.1-11,10.8-15.3c4.7-4.3,10-7.8,16.1-10.5c6.1-2.7,12.7-4,19.9-4c6.8,0,13.4,1.3,19.6,3.8c6.3,2.5,11.7,5.9,16.1,10.2
			c4.5,4.3,8.1,9.4,10.8,15.3C2241,69.2,2242.4,75.6,2242.4,82.4z M2147.7,435.9V168h88.2v267.9H2147.7z"/>
		<path class="st0" d="M2481.8,435.9V289.6c0-7.5-0.6-14.7-1.9-21.5c-1.3-6.8-3.3-12.8-6.2-18c-2.9-5.2-6.9-9.3-12.1-12.4
			c-5.2-3-11.8-4.6-19.6-4.6c-7.9,0-14.8,1.5-20.7,4.6c-5.9,3.1-10.9,7.3-14.8,12.6c-4,5.4-6.9,11.6-8.9,18.6c-2,7-3,14.3-3,21.8
			v145.3h-88.8V168h85.5v37.1h1.1c3.2-5.7,7.4-11.4,12.6-16.9c5.2-5.6,11.3-10.3,18.3-14.3c7-3.9,14.6-7.2,22.9-9.7
			c8.2-2.5,17-3.8,26.4-3.8c17.9,0,33.2,3.2,45.7,9.7c12.6,6.5,22.7,14.8,30.4,25c7.7,10.2,13.3,22,16.7,35.2
			c3.4,13.3,5.1,26.5,5.1,39.8v165.7H2481.8z"/>
		<path class="st0" d="M2921.4,410.6c0,26.2-3.8,49-11.3,68.3c-7.5,19.4-18.1,35.4-31.7,48.2c-13.6,12.7-30.2,22.2-49.8,28.5
			c-19.6,6.3-41.2,9.4-64.8,9.4c-23.7,0-48-3.6-72.9-10.8c-24.9-7.2-46.5-17.6-64.8-31.2l44.1-62.9c12.9,11.5,27.2,20,42.8,25.6
			c15.6,5.6,30.9,8.3,46,8.3c25.8,0,44.9-6.8,57.3-20.4c12.4-13.6,18.6-31.7,18.6-54.3v-16.1h-1.6c-8.3,10.8-19.4,19.4-33.4,25.8
			c-14,6.5-30,9.7-47.9,9.7c-20.4,0-38.6-3.7-54.3-11c-15.8-7.3-29.1-17.3-40.1-29.9c-10.9-12.5-19.3-27.2-25-43.8
			c-5.7-16.7-8.6-34.3-8.6-53c0-18.6,2.9-36.4,8.6-53.3c5.7-16.9,14.1-31.7,25-44.7c10.9-12.9,24.3-23.2,40.1-30.9
			c15.8-7.7,33.7-11.6,53.8-11.6c16.9,0,33,3.4,48.4,10.2c15.4,6.8,27.8,17.4,37.1,31.7h1.1V168h83.4V410.6z M2837.4,300.3
			c0-9-1.5-17.6-4.6-25.8c-3.1-8.2-7.4-15.5-13.2-21.8c-5.7-6.3-12.6-11.2-20.4-14.8c-7.9-3.6-16.9-5.4-26.9-5.4
			c-10,0-18.9,1.8-26.6,5.4c-7.7,3.6-14.3,8.4-19.6,14.5c-5.4,6.1-9.5,13.3-12.4,21.5c-2.9,8.3-4.3,17-4.3,26.4
			c0,9,1.4,17.6,4.3,25.8c2.9,8.3,7,15.5,12.4,21.8c5.4,6.3,11.9,11.3,19.6,15.1c7.7,3.8,16.6,5.6,26.6,5.6c10,0,19.1-1.9,27.2-5.6
			c8.1-3.8,14.9-8.7,20.4-14.8c5.6-6.1,9.9-13.3,12.9-21.5C2835.9,318.4,2837.4,309.6,2837.4,300.3z"/>
		<path class="st0" d="M3148.9,247.1c-7.2-6.8-15.6-12.5-25.3-17.2c-9.7-4.7-19.9-7-30.7-7c-8.3,0-15.9,1.6-22.9,4.8
			c-7,3.2-10.5,8.8-10.5,16.7c0,7.5,3.8,12.9,11.6,16.1c7.7,3.2,20.2,6.8,37.4,10.8c10,2.2,20.2,5.2,30.4,9.1
			c10.2,4,19.5,9.1,27.7,15.6c8.2,6.5,14.9,14.3,19.9,23.7c5,9.3,7.5,20.4,7.5,33.4c0,16.9-3.4,31.1-10.2,42.8
			c-6.8,11.7-15.7,21.1-26.6,28.2c-10.9,7.2-23.2,12.4-36.9,15.6c-13.6,3.2-27.3,4.8-40.9,4.8c-21.9,0-43.3-3.5-64.3-10.5
			c-21-7-38.5-17.3-52.5-30.9l49.5-52.2c7.9,8.6,17.6,15.8,29.1,21.5c11.5,5.7,23.7,8.6,36.6,8.6c7.2,0,14.3-1.7,21.3-5.1
			c7-3.4,10.5-9.4,10.5-18c0-8.2-4.3-14.3-12.9-18.3c-8.6-3.9-22.1-8.1-40.4-12.4c-9.3-2.2-18.7-5-28-8.6c-9.3-3.6-17.7-8.4-25-14.5
			c-7.4-6.1-13.4-13.6-18-22.6c-4.7-9-7-19.7-7-32.3c0-16.1,3.4-29.9,10.2-41.2c6.8-11.3,15.6-20.5,26.4-27.7
			c10.8-7.2,22.7-12.5,35.8-15.9c13.1-3.4,26.1-5.1,39-5.1c20.1,0,39.7,3.1,58.9,9.4c19.2,6.3,35.4,15.7,48.7,28.2L3148.9,247.1z"/>
		<path class="st0" d="M3421.7,435.9V290.6c0-7.5-0.5-14.7-1.6-21.5c-1.1-6.8-3.1-12.8-6.2-18c-3.1-5.2-7.1-9.3-12.1-12.4
			c-5-3-11.5-4.6-19.4-4.6c-15.4,0-27.3,5.5-35.5,16.4c-8.3,10.9-12.4,24.5-12.4,40.6v144.7h-88.2V29.2h88.2v172.7h1.1
			c6.1-10.8,15.8-20.4,29.1-28.8c13.3-8.4,29.2-12.6,47.9-12.6c18.3,0,33.6,3.2,46,9.7c12.4,6.5,22.4,14.8,30.1,25
			c7.7,10.2,13.3,22,16.7,35.2c3.4,13.3,5.1,26.5,5.1,39.8v165.7H3421.7z"/>
		<path class="st0" d="M3861.3,300.9c0,21.9-4,41.7-11.8,59.5c-7.9,17.8-18.7,32.8-32.3,45.2c-13.6,12.4-29.4,22-47.3,28.8
			c-17.9,6.8-37.1,10.2-57.6,10.2c-20.1,0-39.2-3.4-57.3-10.2c-18.1-6.8-33.9-16.4-47.3-28.8c-13.5-12.4-24.1-27.4-32-45.2
			c-7.9-17.8-11.8-37.6-11.8-59.5c0-21.9,3.9-41.6,11.8-59.2c7.9-17.6,18.6-32.5,32-44.7c13.5-12.2,29.2-21.5,47.3-28
			c18.1-6.5,37.2-9.7,57.3-9.7c20.4,0,39.6,3.2,57.6,9.7c17.9,6.5,33.7,15.8,47.3,28c13.6,12.2,24.4,27.1,32.3,44.7
			C3857.3,259.3,3861.3,279,3861.3,300.9z M3776.2,300.9c0-8.6-1.4-17-4.3-25.3c-2.9-8.2-7-15.5-12.4-21.8
			c-5.4-6.3-12-11.4-19.9-15.3c-7.9-3.9-17-5.9-27.4-5.9c-10.4,0-19.6,2-27.4,5.9c-7.9,4-14.4,9.1-19.6,15.3
			c-5.2,6.3-9.1,13.5-11.8,21.8c-2.7,8.3-4,16.7-4,25.3s1.3,17,4,25.3c2.7,8.3,6.7,15.7,12.1,22.3c5.4,6.6,12,11.9,19.9,15.9
			c7.9,4,17,5.9,27.4,5.9c10.4,0,19.5-2,27.4-5.9c7.9-3.9,14.5-9.2,19.9-15.9c5.4-6.6,9.4-14.1,12.1-22.3
			C3774.9,317.9,3776.2,309.5,3776.2,300.9z"/>
		<path class="st0" d="M4215.3,300.9c0,18.7-2.9,36.6-8.6,53.8c-5.7,17.2-14.1,32.4-25,45.5c-10.9,13.1-24.3,23.6-40.1,31.5
			c-15.8,7.9-33.7,11.8-53.8,11.8c-16.5,0-32.1-3.3-46.8-10c-14.7-6.6-26.2-15.7-34.4-27.2h-1.1V565h-88.2V168h83.9v32.8h1.6
			c8.2-10.8,19.6-20.2,34.2-28.2c14.5-8.1,31.7-12.1,51.4-12.1c19.4,0,36.9,3.8,52.7,11.3c15.8,7.5,29.1,17.8,40.1,30.7
			c10.9,12.9,19.4,27.9,25.3,44.9C4212.3,264.4,4215.3,282.2,4215.3,300.9z M4129.7,300.9c0-8.6-1.3-17-4-25.3
			c-2.7-8.2-6.6-15.5-11.8-21.8c-5.2-6.3-11.8-11.4-19.6-15.3c-7.9-3.9-17-5.9-27.4-5.9c-10,0-19,2-26.9,5.9
			c-7.9,4-14.6,9.1-20.2,15.6c-5.6,6.5-9.9,13.8-12.9,22.1c-3.1,8.3-4.6,16.7-4.6,25.3s1.5,17,4.6,25.3c3,8.3,7.3,15.6,12.9,22.1
			c5.6,6.5,12.3,11.7,20.2,15.6c7.9,4,16.9,5.9,26.9,5.9c10.4,0,19.5-2,27.4-5.9c7.9-3.9,14.4-9.1,19.6-15.6
			c5.2-6.5,9.1-13.9,11.8-22.3C4128.4,318,4129.7,309.5,4129.7,300.9z"/>
		<path class="st0" d="M4364.8,388.6c0,15.1-5.3,27.6-15.9,37.7c-10.6,10-23.2,15.1-37.9,15.1c-7.5,0-14.6-1.3-21.3-4
			c-6.6-2.7-12.5-6.4-17.5-11c-5-4.7-9-10.1-11.8-16.4c-2.9-6.3-4.3-13.2-4.3-20.7c0-7.2,1.4-14,4.3-20.4
			c2.9-6.5,6.8-12.1,11.8-16.9c5-4.8,10.8-8.7,17.5-11.6c6.6-2.9,13.7-4.3,21.3-4.3c14.7,0,27.3,5,37.9,15.1
			C4359.5,360.9,4364.8,373.5,4364.8,388.6z"/>
		<path class="st0" d="M4610.7,254.6c-5-6.5-11.8-11.7-20.4-15.6c-8.6-3.9-17.4-5.9-26.4-5.9c-9.3,0-17.8,1.9-25.3,5.7
			c-7.5,3.8-14,8.8-19.4,15.1c-5.4,6.3-9.6,13.5-12.6,21.8c-3.1,8.3-4.6,17-4.6,26.4c0,9.3,1.4,18.1,4.3,26.4
			c2.9,8.3,7.1,15.5,12.6,21.8c5.6,6.3,12.2,11.2,19.9,14.8c7.7,3.6,16.4,5.4,26.1,5.4c9,0,17.8-1.7,26.6-5.1
			c8.8-3.4,15.9-8.3,21.3-14.8l49,59.7c-11.1,10.8-25.5,19.2-43,25.3c-17.6,6.1-36.2,9.1-56,9.1c-21.2,0-40.9-3.2-59.3-9.7
			c-18.3-6.5-34.3-15.9-47.8-28.2c-13.5-12.4-24.2-27.3-31.9-44.9c-7.8-17.6-11.6-37.5-11.6-59.7c0-21.9,3.9-41.6,11.6-59.2
			c7.8-17.6,18.4-32.6,31.9-44.9c13.5-12.4,29.5-21.9,47.8-28.5c18.3-6.6,37.9-10,58.7-10c9.7,0,19.3,0.9,28.8,2.7
			c9.5,1.8,18.6,4.2,27.4,7.3c8.8,3.1,16.9,6.8,24.2,11.3c7.3,4.5,13.7,9.4,19.1,14.8L4610.7,254.6z"/>
		<path class="st0" d="M4872.7,435.9V290.6c0-7.5-0.5-14.7-1.6-21.5c-1.1-6.8-3.1-12.8-6.2-18c-3.1-5.2-7.1-9.3-12.1-12.4
			c-5-3-11.5-4.6-19.4-4.6c-15.4,0-27.3,5.5-35.5,16.4c-8.3,10.9-12.4,24.5-12.4,40.6v144.7h-88.2V29.2h88.2v172.7h1.1
			c6.1-10.8,15.8-20.4,29.1-28.8c13.3-8.4,29.2-12.6,47.9-12.6c18.3,0,33.6,3.2,46,9.7c12.4,6.5,22.4,14.8,30.1,25
			c7.7,10.2,13.3,22,16.7,35.2c3.4,13.3,5.1,26.5,5.1,39.8v165.7H4872.7z"/>
	</g>
	<path class="st0" d="M430.1,111.1h-94C330.7,53.3,282,8,222.8,8c-59.2,0-107.9,45.3-113.3,103.1h-94c-5,0-9,4-9,9v323.2
		c0,55.4,44.9,100.4,100.4,100.4h231.8c55.4,0,100.4-44.9,100.4-100.4V120.1C439.1,115.1,435,111.1,430.1,111.1z M222.8,59.2
		c30.9,0,56.6,22.4,61.6,51.9H161.2C166.2,81.6,191.9,59.2,222.8,59.2z M343.7,441.4c-2.3,4.1-6.6,6.6-11.2,6.6l-48.8-0.2
		c-4.4,0-8.5-2.3-10.9-6L231.7,377c-1.9-3-5.2-4.8-8.7-4.8c-3.5,0-6.8,1.8-8.7,4.8l-41.6,64.5c-2.4,3.7-6.5,5.9-10.9,5.9l-48.8-0.2
		c-4.7,0-9-2.5-11.2-6.6c-2.2-4.1-2.1-9.1,0.4-13l110.7-177.6l-19.2-29.8c-2.6-4-1.4-9.3,2.6-11.9c4-2.6,9.3-1.4,11.9,2.6l15.2,23.8
		l15.4-23.7c2.6-4,7.9-5.1,11.9-2.5c4,2.6,5.1,7.9,2.5,11.9L233.9,250l109.5,178.4C345.9,432.4,346,437.3,343.7,441.4z"/>
</g>
</svg>
