<svg width="165" height="40" xmlns="http://www.w3.org/2000/svg" xmlns:xlink="http://www.w3.org/1999/xlink"><defs><path id="a" d="M0 .11h45.77v21.4H0z"/></defs><g fill="none" fill-rule="evenodd"><path d="M14.27 8.73l.48.93L17.7 6.5l-1.8-1.74-3.7 3.7h1.63c.19 0 .36.1.44.26" fill="#36D8DE"/><path d="M27.7 6.84a.5.5 0 01.61-.16L33.5 9.1l-6.65-7.87-4.21 4.2 3.58 3.5 1.49-2.09z" fill="#57C5D0"/><path d="M15.9 4.77l1.8 1.74-2.95 3.15-.48-.93a.5.5 0 00-.44-.27H12.2l3.7-3.7zm3.74 3.63l3.49 3.38h-6.89l3.4-3.38zm7.2-7.17l6.65 7.87-5.18-2.42a.5.5 0 00-.61.16l-1.5 2.1-3.57-3.52 4.2-4.19zm-20.5 11.7L3.2 16.06a.5.5 0 00.7.7l4.96-4.96 2.35-2.34h2.32l.66 1.28a.5.5 0 00.8.11l3.42-3.65.52.5-4.24 4.22a.5.5 0 00.35.85h9.31a.5.5 0 00.35-.85l-4.36-4.23 1.58-1.57 4 3.93c.1.1.25.15.4.14a.5.5 0 00.36-.2l1.59-2.23 6.75 3.16 4.91 5.81a.5.5 0 00.7.06.5.5 0 00.06-.7l-4.99-5.9L27.25.17a.5.5 0 00-.73-.04L19.63 7l-3.4-3.29a.5.5 0 00-.69.01L11.46 7.8l-5.13 5.13z" fill="#242D3C"/><path d="M31 25.13c3.95.06 6.87.15 7.58.25.82.12 1.49.25 2.09.5l1.1.63a7.68 7.68 0 011.67 1.88c.17 1.2.29 2.7.3 4.6h-6.09a3.74 3.74 0 00-2.03-2.13 5.26 5.26 0 00-4.05.1A3.55 3.55 0 0029.8 33H11.3a3.23 3.23 0 00-1.38-1.8.5.5 0 00-.26-.08h-4.1a.5.5 0 00-.27.07 3.23 3.23 0 00-1.4 1.81H2.4c-.12-1.33-.4-5.36-.08-7.93 5.41-.16 18.75-.11 27.7.03l1 .02zM38.57 18.71c.48.14.92.36 1.27.58-.53 0-27.52-.04-35.85-.38.42-.27 1.22-.53 2.78-.68 7.26-.68 27.37-.66 31.8.48M7.4 37.17c-.75-.06-1.33-.35-1.62-.77a1.98 1.98 0 01-.14-1.9.9.9 0 01.85-.5h3.94a3.62 3.62 0 01-.8 2.55c-.39.4-1.12.64-1.9.64h-.01c-.11 0-.22 0-.33-.02M36.86 34c.17.93-.07 1.85-.6 2.34a2.95 2.95 0 01-2.73.74c-.84-.19-1.57-.73-1.8-1.33-.24-.58-.26-1.1-.06-1.4.17-.24.52-.37 1.06-.37h4.13V34" fill="#57C5D0"/><g transform="translate(0 16.67)"><mask id="b" fill="#fff"><use xlink:href="#a"/></mask><path d="M30.96 8.45c3.95.07 6.87.16 7.58.26.81.11 1.49.25 2.08.49l1.12.63a7.68 7.68 0 011.66 1.88c.17 1.2.28 2.71.3 4.6h-6.09a3.74 3.74 0 00-2.03-2.12 5.25 5.25 0 00-4.05.09 3.55 3.55 0 00-1.78 2.06h-18.5a3.24 3.24 0 00-1.37-1.8.5.5 0 00-.27-.09h-4.1a.5.5 0 00-.26.08 3.23 3.23 0 00-1.4 1.8H2.35c-.11-1.33-.4-5.36-.07-7.93 5.4-.15 18.75-.11 27.7.03l1 .02zm-20.53 8.88a3.62 3.62 0 01-.8 2.55c-.39.4-1.12.63-1.9.63h-.01l-.33-.01c-.74-.07-1.32-.35-1.6-.77a1.98 1.98 0 01-.15-1.9.9.9 0 01.85-.5h3.94zm-.05 3.18a4.6 4.6 0 001.05-3.18h18.7a.5.5 0 00.48-.37c.2-.84.67-1.45 1.36-1.8a4.27 4.27 0 013.23-.05c.55.23 1.01.65 1.31 1.2h-3.78c-1.1 0-1.63.45-1.88.81-.39.58-.4 1.42-.05 2.32.16.4.44.76.8 1.07H10.38zm21.34-1.44c-.23-.58-.25-1.1-.05-1.39.17-.24.52-.37 1.06-.37h4.13v.01c.17.93-.07 1.85-.6 2.34a2.95 2.95 0 01-2.73.75c-.84-.2-1.57-.73-1.8-1.34zM43 9.62c-.49-.5-.98-.86-1.52-1.13l-1.24-.47c-.48-.12-.99-.22-1.55-.3-.72-.1-3.7-.19-7.72-.26V3.58l6.82.02H39.58c.53.82 2.3 3.54 2.6 3.97.2.3.52.92.81 2.05zm-3.15-7C39.31 2.6 12.32 2.57 4 2.23c.42-.28 1.22-.54 2.78-.68 7.26-.68 27.37-.67 31.8.48.48.13.92.36 1.27.57zm-36.4.59c1.73.08 4.5.15 7.76.2l1 .01c1.56.03 3.22.05 4.92.06l1 .01 5.34.05h.99l5.52.03v3.87l-5.52-.07h-1l-5.34-.05H11.2c-3.57 0-6.7.03-8.76.08.42-2.1.7-3.14.92-3.91l.07-.28zM0 16.83c0 .28.22.5.5.5h3.75a.5.5 0 00.48-.4c.15-.77.56-1.23.93-1.48h3.8c.36.25.59.57.73.89H6.5a1.9 1.9 0 00-1.73 1.02 2.95 2.95 0 00.38 3.15h-2.7a.5.5 0 100 1H43.7a.5.5 0 000-1h-6.92l.15-.11c.75-.7 1.1-1.87.94-3.09h7.41a.5.5 0 100-1h-.59c-.05-5.94-1.07-8.37-1.7-9.3l-2.65-4.07.26.21a.5.5 0 10.66-.75 7.05 7.05 0 00-2.43-1.32C34.3-.1 13.99-.12 6.68.58c-2.56.22-3.79.81-4.1 1.96v.03l-.18.65c-.23.84-.54 1.98-1 4.35l-.04.24-.01.05c-.43 2.63-.14 6.95 0 8.48H.5a.5.5 0 00-.5.5z" fill="#242D3C" mask="url(#b)"/></g><g><path d="M156.5 27.3l1.37-11.22h1.73c.34 0 .61.08.8.24.2.16.3.43.3.8v1.27c.43-.76.9-1.35 1.4-1.76.5-.41 1.03-.62 1.57-.62.3 0 .6.07.9.2l-.6 3.11a2.65 2.65 0 00-1.05-.24 1.9 1.9 0 00-1.48.76c-.43.5-.78 1.3-1.04 2.41l-.61 5.04h-3.29zM152 18.19c-.55 0-1.04.22-1.46.66a4.22 4.22 0 00-.94 1.82c.7-.1 1.27-.22 1.7-.34.43-.12.77-.25 1-.39.25-.14.4-.29.49-.45.08-.16.12-.34.12-.52a.8.8 0 00-.21-.53c-.15-.17-.38-.25-.7-.25m3.94.65c0 .5-.1.98-.3 1.4-.2.43-.56.8-1.06 1.13-.5.33-1.17.6-2.02.84-.85.23-1.91.41-3.2.54.02.76.19 1.32.5 1.68.33.35.8.53 1.43.53.3 0 .55-.03.77-.08a2.67 2.67 0 001-.44l.38-.25c.12-.08.24-.15.37-.2.13-.05.28-.07.44-.07.11 0 .22.02.32.08.1.05.19.12.27.2l.86 1.02c-.4.38-.78.72-1.16 1a5.55 5.55 0 01-2.44 1.1c-.45.1-.95.14-1.48.14-.66 0-1.27-.11-1.83-.34a4.14 4.14 0 01-2.36-2.46 5.48 5.48 0 01-.33-1.94 7.65 7.65 0 01.77-3.36 6.7 6.7 0 012.13-2.47 5.73 5.73 0 013.2-.96c.6 0 1.13.08 1.6.26.46.17.85.4 1.17.67.31.28.56.6.72.94.17.34.25.69.25 1.04M140.91 18.45c-.23 0-.47.08-.72.26-.26.18-.5.42-.73.73a7.88 7.88 0 00-1.17 2.4l-.34 2.7c.2.16.44.28.7.35.25.07.5.1.73.1.39 0 .74-.12 1.07-.38.33-.26.61-.6.85-1.02a6.88 6.88 0 00.76-3.1c0-.71-.1-1.23-.32-1.56-.2-.32-.48-.48-.83-.48zm-7 12.4l1.79-14.77h1.73c.35 0 .62.08.81.24.2.16.3.43.3.8v1.01a6.4 6.4 0 011.7-1.63c.63-.4 1.3-.6 2.01-.6.46 0 .88.09 1.27.25.38.16.7.41.99.76.27.35.49.79.65 1.33a8.66 8.66 0 01-1.42 7.04c-.51.67-1.1 1.2-1.75 1.6-.66.39-1.35.58-2.07.58a3.28 3.28 0 01-2.23-.83l-.52 4.22h-3.27zM117.1 27.3l1.36-11.22h1.73c.35 0 .62.08.81.24.2.16.3.43.3.8v.66c.47-.64.97-1.1 1.5-1.42.53-.3 1.08-.45 1.65-.45.64 0 1.16.2 1.58.61.42.41.69 1.01.8 1.8a5.55 5.55 0 011.64-1.83 3.56 3.56 0 013.14-.36c.34.14.63.36.87.65.24.29.43.64.56 1.06a4.77 4.77 0 01.19 1.88l-.04.45-.84 7.12h-3.31l.84-7.12a6.81 6.81 0 00.05-.63c0-.37-.06-.63-.18-.77-.11-.14-.29-.22-.52-.22-.22 0-.43.06-.64.18-.2.12-.4.3-.58.52-.19.23-.36.5-.5.82-.16.32-.3.68-.4 1.08l-.73 6.14h-3.31l.84-7.12a7.29 7.29 0 00.05-.63c0-.37-.06-.63-.18-.77-.11-.14-.29-.22-.52-.22-.22 0-.44.07-.64.19-.21.12-.41.3-.6.53-.18.23-.35.5-.5.84-.15.32-.28.69-.4 1.1l-.73 6.08h-3.29zM110.05 24.81c.25 0 .48-.09.72-.27.23-.18.44-.43.65-.75.2-.32.4-.7.57-1.12.17-.42.32-.88.44-1.36l.39-3.1h-.2c-.54 0-1.04.12-1.5.37-.44.24-.83.57-1.16 1-.32.42-.57.9-.75 1.47a5.89 5.89 0 00-.18 2.7c.06.26.14.46.24.62.1.15.21.26.34.34.14.07.28.1.44.1zm4.93 2.48h-1.8c-.2 0-.38-.03-.52-.08a.85.85 0 01-.33-.22.78.78 0 01-.18-.34 1.72 1.72 0 01-.04-.42v-.8a5.77 5.77 0 01-1.54 1.5c-.56.35-1.18.53-1.86.53a2.91 2.91 0 01-2.16-.97 3.66 3.66 0 01-.7-1.26 5.6 5.6 0 01-.25-1.8 7.6 7.6 0 012.11-5.29 7.5 7.5 0 015.4-2.23c.52 0 1.06.03 1.61.1.55.08 1.1.2 1.62.4l-1.36 10.88zM99.83 24.57a5.07 5.07 0 001.79-.33c.2-.1.38-.2.53-.3l.39-.31c.11-.1.22-.18.32-.24s.21-.09.33-.09c.11 0 .2.02.28.06.08.04.13.09.17.14l1.23 1.48a6.78 6.78 0 01-2.44 1.85 7.76 7.76 0 01-5.85.1 5.55 5.55 0 01-1.94-1.43 6.23 6.23 0 01-1.2-2.18 8.83 8.83 0 01-.4-2.72 10.54 10.54 0 011.16-4.8 8.66 8.66 0 013.04-3.25 8.16 8.16 0 015.9-1.02c.48.11.92.27 1.32.47a4.96 4.96 0 011.86 1.61l-1.23 1.43c-.09.1-.19.2-.3.27a.78.78 0 01-.46.12.67.67 0 01-.33-.09 2.5 2.5 0 01-.31-.2c-.1-.1-.22-.18-.35-.28-.13-.1-.29-.2-.47-.28a3.4 3.4 0 00-1.52-.3A4.15 4.15 0 0098 15.91a5.8 5.8 0 00-.99 1.9 8.22 8.22 0 00-.11 4.3c.16.53.38.97.66 1.34a2.84 2.84 0 002.27 1.12" fill="#242D3C"/><path d="M85.17 30.21c-.12.22-.26.39-.43.49-.17.1-.37.15-.61.15h-2.5l2.55-4.56-2.77-10.21h2.83c.24 0 .41.06.53.17.12.12.2.25.25.41l.97 4.84a20.68 20.68 0 01.2 1.24l.29-.63.29-.64 2.07-4.8c.1-.17.22-.31.38-.42a.9.9 0 01.51-.17h2.7L85.17 30.2zM71.25 21.06l.4-.69 4.82-8.3a.9.9 0 01.54-.45c.21-.05.42-.08.63-.08h2.76l-1.94 15.75h-3.1l1.1-9.17.11-.64.16-.73-4.74 8.13c-.14.24-.33.43-.56.55-.23.11-.48.17-.76.17h-.47c-.28 0-.52-.06-.72-.18a.96.96 0 01-.43-.54l-2.77-8.15a52.44 52.44 0 00-.08 1.34l-1.09 9.22H62l1.95-15.74h3.08c.11 0 .22.01.3.05.1.03.17.08.24.15.06.08.12.18.16.32l2.77 8.3c.15.45.28.92.39 1.4.11-.24.23-.48.36-.7z" fill="#2AB2B8"/></g></g></svg>
